<svg width="54" height="54" viewBox="0 0 54 54" fill="none" xmlns="http://www.w3.org/2000/svg">
<path d="M19.5 49.5C23.64 49.5 27 46.14 27 42V34.5H19.5C15.36 34.5 12 37.86 12 42C12 46.14 15.36 49.5 19.5 49.5Z" fill="#0ACF83"/>
<path d="M12 27C12 22.86 15.36 19.5 19.5 19.5H27V34.5H19.5C15.36 34.5 12 31.14 12 27Z" fill="#A259FF"/>
<path d="M12 12C12 7.86 15.36 4.5 19.5 4.5H27V19.5H19.5C15.36 19.5 12 16.14 12 12Z" fill="#F24E1E"/>
<path d="M27 4.5H34.5C38.64 4.5 42 7.86 42 12C42 16.14 38.64 19.5 34.5 19.5H27V4.5Z" fill="#FF7262"/>
<path d="M42 27C42 31.14 38.64 34.5 34.5 34.5C30.36 34.5 27 31.14 27 27C27 22.86 30.36 19.5 34.5 19.5C38.64 19.5 42 22.86 42 27Z" fill="#1ABCFE"/>
</svg>
