<svg width="54" height="54" viewBox="0 0 54 54" fill="none" xmlns="http://www.w3.org/2000/svg">
<path d="M6.75 47.25V6.75H47.25V47.25H6.75Z" fill="#FFD600"/>
<path d="M33.2303 37.0654C34.0088 38.3299 34.8548 39.5415 36.6469 39.5415C38.1521 39.5415 38.9419 38.7934 38.9419 37.7584C38.9419 36.5197 38.1251 36.0799 36.4691 35.3587L35.5613 34.9717C32.9411 33.8602 31.1985 32.4675 31.1985 29.5256C31.1985 26.8144 33.2741 24.7511 36.5175 24.7511C38.8271 24.7511 40.4865 25.551 41.6835 27.6457L38.8553 29.4536C38.2331 28.3421 37.5604 27.9045 36.5175 27.9045C35.4533 27.9045 34.7794 28.5761 34.7794 29.4536C34.7794 30.5381 35.4544 30.9769 37.0125 31.6485L37.9204 32.0355C41.0085 33.3506 42.75 34.6939 42.75 37.7134C42.75 40.9669 40.1805 42.75 36.7313 42.75C33.3574 42.75 31.4415 41.0569 30.375 38.961L33.2303 37.0654ZM20.196 37.1576C20.7653 38.1769 21.6304 38.961 22.8746 38.961C24.0649 38.961 24.75 38.4907 24.75 36.6626V24.75H28.4996V37.2386C28.4996 41.0265 26.3025 42.75 23.094 42.75C20.1949 42.75 18.1024 40.7857 17.2496 38.961L20.196 37.1576Z" fill="#000001"/>
</svg>
