<svg width="56" height="56" viewBox="0 0 56 56" fill="none" xmlns="http://www.w3.org/2000/svg">
<path d="M27.9533 32.648C30.5409 32.648 32.6386 30.5503 32.6386 27.9627C32.6386 25.375 30.5409 23.2773 27.9533 23.2773C25.3656 23.2773 23.2679 25.375 23.2679 27.9627C23.2679 30.5503 25.3656 32.648 27.9533 32.648Z" fill="#00D8FF"/>
<path d="M27.9534 38.696C21.3734 38.696 15.624 37.9213 11.3214 36.4466C8.53068 35.4946 6.16002 34.2253 4.47068 32.7786C2.67868 31.248 1.72668 29.5773 1.72668 27.9626C1.72668 24.864 5.12402 21.8306 10.8267 19.852C15.4934 18.228 21.5787 17.3226 27.944 17.3226C34.1973 17.3226 40.1987 18.2 44.8374 19.8053C47.5534 20.7386 49.84 21.952 51.464 23.296C53.228 24.7706 54.1614 26.3853 54.1614 27.9626C54.1614 31.1826 50.3627 34.44 44.24 36.4653C39.9094 37.9026 34.1227 38.696 27.9534 38.696ZM27.9534 19.5626C21.9147 19.5626 15.9414 20.44 11.5734 21.9613C6.32802 23.7906 3.97602 26.292 3.97602 27.9626C3.97602 29.6986 6.50535 32.4333 12.0494 34.328C16.1187 35.7186 21.6254 36.456 27.9534 36.456C33.8894 36.456 39.424 35.7093 43.54 34.3373C49.2987 32.424 51.9307 29.6893 51.9307 27.9626C51.9307 27.076 51.2587 26.0306 50.036 25.0133C48.6267 23.8373 46.5734 22.764 44.1187 21.9146C39.704 20.4026 33.964 19.5626 27.9534 19.5626Z" fill="#00D8FF"/>
<path d="M17.3226 51.3147C16.3706 51.3147 15.5306 51.1094 14.8213 50.6987C12.1426 49.1494 11.2093 44.688 12.3386 38.7614C13.2626 33.8987 15.5213 28.1867 18.704 22.6707C21.8306 17.2574 25.5826 12.4974 29.288 9.27736C31.4533 7.39203 33.6466 6.0107 35.6253 5.2827C37.7813 4.48936 39.648 4.48936 41.0106 5.27336C43.8013 6.8787 44.7253 11.8067 43.4186 18.116C42.4946 22.596 40.292 28 37.212 33.348C33.9266 39.0414 30.38 43.6334 26.9546 46.6294C24.7333 48.5707 22.4466 49.9894 20.356 50.7267C19.264 51.1187 18.2373 51.3147 17.3226 51.3147ZM19.6653 23.2307L20.636 23.7907C17.6213 29.0174 15.3906 34.6267 14.532 39.1814C13.496 44.6414 14.4946 47.9267 15.932 48.7574C16.2866 48.9627 16.7533 49.0747 17.3226 49.0747C19.18 49.0747 22.1013 47.8987 25.48 44.9494C28.7186 42.1214 32.1066 37.716 35.2706 32.2374C38.2386 27.0947 40.348 21.924 41.2253 17.6774C42.448 11.732 41.3933 8.09203 39.8906 7.22403C39.1253 6.78536 37.884 6.84136 36.3906 7.39203C34.664 8.0267 32.7133 9.26803 30.7533 10.976C27.2346 14.0374 23.6413 18.592 20.636 23.8L19.6653 23.2307Z" fill="#00D8FF"/>
<path d="M38.5841 51.3427C36.0454 51.3427 32.8254 49.8121 29.4654 46.9187C25.7134 43.6894 21.896 38.8827 18.704 33.3667C15.568 27.9534 13.328 22.3254 12.3854 17.5001C11.8347 14.6814 11.732 12.0961 12.0867 10.0147C12.4787 7.74672 13.4027 6.13205 14.7747 5.33872C17.556 3.72406 22.288 5.38539 27.104 9.66939C30.5201 12.7027 34.1041 17.3134 37.1934 22.6521C40.4881 28.3454 42.7001 33.7121 43.5774 38.1734C44.1467 41.0667 44.2401 43.7547 43.8387 45.9387C43.4094 48.2627 42.4387 49.9147 41.0387 50.7267C40.3387 51.1374 39.5081 51.3427 38.5841 51.3427ZM20.6454 32.2467C23.6694 37.4734 27.4214 42.2054 30.9307 45.2201C35.1401 48.8414 38.4814 49.6254 39.9281 48.7854C41.4307 47.9174 42.5321 44.3614 41.3934 38.6121C40.5534 34.3934 38.4347 29.2601 35.2614 23.7814C32.284 18.6387 28.8587 14.2241 25.6201 11.3494C21.0841 7.31739 17.4067 6.41205 15.904 7.28005C15.1387 7.71872 14.5694 8.82939 14.2987 10.3974C13.9907 12.2081 14.084 14.5227 14.588 17.0707C15.4841 21.6534 17.6307 27.0387 20.6454 32.2467Z" fill="#00D8FF"/>
</svg>
