<svg width="59" height="56" viewBox="0 0 59 56" fill="none" xmlns="http://www.w3.org/2000/svg">
<g clip-path="url(#clip0_41_72)">
<path d="M29.5 11.4745C21.7667 11.4745 16.9333 15.1467 15 22.491C17.9 18.8189 21.2833 17.4425 25.15 18.3597C27.3564 18.8831 28.9333 20.4041 30.6793 22.087C33.5213 24.8271 36.8116 27.9999 44 27.9999C51.7333 27.9999 56.5667 24.3277 58.5 16.9822C55.6 20.6544 52.2167 22.0319 48.35 21.1147C46.1448 20.5912 44.5679 19.0703 42.8219 17.3874C39.9787 14.6462 36.6872 11.4745 29.5 11.4745ZM15 27.9999C7.26667 27.9999 2.43333 31.6721 0.5 39.0176C3.4 35.3454 6.78333 33.9679 10.65 34.8862C12.8552 35.4108 14.4321 36.9307 16.1781 38.6124C19.0213 41.3536 22.3128 44.5264 29.5 44.5264C37.2333 44.5264 42.0667 40.8543 44 33.5087C41.1 37.1809 37.7167 38.5584 33.85 37.6401C31.6436 37.1166 30.0667 35.5957 28.3207 33.914C25.4787 31.1727 22.1884 27.9999 15 27.9999Z" fill="#00ACC1"/>
</g>
<defs>
<clipPath id="clip0_41_72">
<rect width="58" height="55.1" fill="white" transform="translate(0.5 0.449951)"/>
</clipPath>
</defs>
</svg>
